<svg width="24" height="29" viewBox="0 0 24 29" fill="none" xmlns="http://www.w3.org/2000/svg">
<path fill-rule="evenodd" clip-rule="evenodd" d="M12 0C5.37 0 0 0.75 0 6V20.25C0 23.145 2.355 25.5 5.25 25.5L3.525 27.225C3.06 27.69 3.39 28.5 4.065 28.5H19.95C20.625 28.5 20.955 27.69 20.475 27.225L18.75 25.5C21.645 25.5 24 23.145 24 20.25V6C24 0.75 18.63 0 12 0ZM5.25006 22.4999C4.00506 22.4999 3.00006 21.4949 3.00006 20.2499C3.00006 19.0049 4.00506 17.9999 5.25006 17.9999C6.49506 17.9999 7.50006 19.0049 7.50006 20.2499C7.50006 21.4949 6.49506 22.4999 5.25006 22.4999ZM10.5001 13.5001H3.00006V6.00012H10.5001V13.5001ZM18.75 22.4999C17.505 22.4999 16.5 21.4949 16.5 20.2499C16.5 19.0049 17.505 17.9999 18.75 17.9999C19.995 17.9999 21 19.0049 21 20.2499C21 21.4949 19.995 22.4999 18.75 22.4999ZM21.0002 13.5001H13.5002V6.00012H21.0002V13.5001Z" fill="#2765BF"/>
</svg>
