<svg width="24" height="22" viewBox="0 0 24 22" fill="none" xmlns="http://www.w3.org/2000/svg">
<path fill-rule="evenodd" clip-rule="evenodd" d="M21.2267 1.34667C20.96 0.56 20.2133 0 19.3333 0H4.66667C3.78667 0 3.05333 0.56 2.77333 1.34667L0.146667 8.90667C0.0533333 9.18667 0 9.48 0 9.78667V19.3333C0 20.44 0.893333 21.3333 2 21.3333C3.10667 21.3333 4 20.44 4 19.3333V18.6667H20V19.3333C20 20.4267 20.8933 21.3333 22 21.3333C23.0933 21.3333 24 20.44 24 19.3333V9.78667C24 9.49333 23.9467 9.18667 23.8533 8.90667L21.2267 1.34667ZM4.66666 14.6666C3.55999 14.6666 2.66666 13.7733 2.66666 12.6666C2.66666 11.56 3.55999 10.6666 4.66666 10.6666C5.77332 10.6666 6.66666 11.56 6.66666 12.6666C6.66666 13.7733 5.77332 14.6666 4.66666 14.6666ZM19.3333 14.6666C18.2267 14.6666 17.3333 13.7733 17.3333 12.6666C17.3333 11.56 18.2267 10.6666 19.3333 10.6666C20.44 10.6666 21.3333 11.56 21.3333 12.6666C21.3333 13.7733 20.44 14.6666 19.3333 14.6666ZM2.66666 8L4.35999 2.90667C4.54666 2.37333 5.05332 2 5.62666 2H18.3733C18.9467 2 19.4533 2.37333 19.64 2.90667L21.3333 8H2.66666Z" fill="#2765BF"/>
</svg>
