<svg width="240" height="92" viewBox="0 0 240 92" fill="none" xmlns="http://www.w3.org/2000/svg">
<path d="M178.339 60.1635H181.17V56.8804H178.339V53.2031H174.365V56.8804H170.532V60.1635H174.365V61.4366L170.034 70.3035L173.221 73.4896L174.365 70.4328V80.3466H178.339V65.1333L179.832 66.7749L181.667 64.4418L178.339 61.107V60.1635Z" fill="white"/>
<path d="M191.743 74.6788H197.482V63.2915H191.743V61.9537H198.141V59.0648H194.909V58.0696H197.372V55.1872H194.909V53.2031H191.529V55.1872H189.093V53.2031H185.713V55.1872H183.257V58.0696H185.713V59.0648H182.482V61.9537H188.88V63.2915H183.244V74.6788H191.723H191.743ZM189.099 58.0696H191.536V59.0648H189.099V58.0696ZM191.743 72.2876V70.1807H194.638V72.2876H191.743ZM194.638 65.7021V67.8154H191.743V65.7021H194.638ZM188.899 65.7021V67.8154H186.101V65.7021H188.899ZM186.101 72.3134V70.2066H188.899V72.3134H186.101Z" fill="white"/>
<path d="M186.547 80.1014L189.171 76.3724L186.792 74.6792L182.268 78.6602L186.547 80.1014Z" fill="white"/>
<path d="M195.239 74.7041L192.505 76.197L196.137 80.0746L199.22 77.6382L195.239 74.7041Z" fill="white"/>
<path d="M133.468 58.1466L129.591 55.0122C127.812 58.5166 125.521 61.736 122.792 64.5641L116.265 58.1983L113.169 61.029L119.115 67.6727C117.363 68.9591 115.426 69.9703 113.369 70.6714C110.733 71.3984 107.992 71.6695 105.265 71.4728L108.845 77.2375C113.857 76.5532 118.624 74.6541 122.734 71.7054L126.443 75.8416L130.47 72.0157L126.547 68.1897C129.101 65.0193 131.415 61.6623 133.468 58.1466Z" fill="white"/>
<path d="M42.8867 54.6431H69.1383C69.1383 60.8538 67.1478 67.1678 63.7032 70.3152L59.7415 67.5427C59.7415 67.5427 63.5351 62.6956 63.897 59.1411H42.8867V54.6431Z" fill="white"/>
<path d="M51.7729 61.998H56.0189C56.0189 61.998 57.1111 73.0364 50.2477 81.4896C49.0069 80.9403 45.2326 79.1501 45.2326 79.1501C45.2326 79.1501 51.8052 73.3337 51.7729 61.998Z" fill="white"/>
<path d="M239.994 53.0603H205.211C202.953 49.6704 199.892 46.8907 196.302 44.9681C192.711 43.0455 188.701 42.0396 184.627 42.0396C180.554 42.0396 176.544 43.0455 172.953 44.9681C169.362 46.8907 166.302 49.6704 164.044 53.0603H140.577C138.319 49.6704 135.259 46.8907 131.668 44.9681C128.077 43.0455 124.067 42.0396 119.994 42.0396C115.92 42.0396 111.91 43.0455 108.319 44.9681C104.728 46.8907 101.668 49.6704 99.4097 53.0603H75.95C73.6918 49.6704 70.6313 46.8907 67.0405 44.9681C63.4496 43.0455 59.4394 42.0396 55.3662 42.0396C51.293 42.0396 47.2829 43.0455 43.692 44.9681C40.1011 46.8907 37.0406 49.6704 34.7824 53.0603H0V57.6424H32.3848C31.5152 59.8316 30.9646 62.1342 30.7497 64.4799H0V69.062H30.7432C30.9596 71.4082 31.5124 73.711 32.3848 75.8996H0.00646411V80.4817H34.7889C37.0471 83.8716 40.1076 86.6513 43.6985 88.5739C47.2894 90.4965 51.2995 91.5024 55.3727 91.5024C59.4459 91.5024 63.456 90.4965 67.0469 88.5739C70.6378 86.6513 73.6983 83.8716 75.9565 80.4817H99.4162C101.674 83.8716 104.735 86.6513 108.326 88.5739C111.917 90.4965 115.927 91.5024 120 91.5024C124.073 91.5024 128.083 90.4965 131.674 88.5739C135.265 86.6513 138.326 83.8716 140.584 80.4817H164.05C166.308 83.8716 169.369 86.6513 172.96 88.5739C176.55 90.4965 180.561 91.5024 184.634 91.5024C188.707 91.5024 192.717 90.4965 196.308 88.5739C199.899 86.6513 202.959 83.8716 205.218 80.4817H240V75.8996H207.609C208.484 73.7119 209.037 71.4087 209.25 69.062H239.994V64.4799H209.25C209.036 62.1334 208.483 59.8303 207.609 57.6424H239.994V53.0603ZM75.4395 69.062C74.879 73.9932 72.5229 78.5456 68.8207 81.8508C65.1185 85.1561 60.3292 86.9829 55.3662 86.9829C50.4033 86.9829 45.6139 85.1561 41.9117 81.8508C38.2095 78.5456 35.8535 73.9932 35.293 69.062C35.1119 67.5401 35.1119 66.0019 35.293 64.4799C35.5606 62.0956 36.2568 59.7792 37.3481 57.6424C39.0379 54.3155 41.6157 51.5214 44.796 49.5697C47.9763 47.618 51.6348 46.585 55.3662 46.585C59.0976 46.585 62.7562 47.618 65.9365 49.5697C69.1167 51.5214 71.6946 54.3155 73.3843 57.6424C74.4732 59.7802 75.1693 62.0961 75.4395 64.4799C75.6206 66.0019 75.6206 67.5401 75.4395 69.062ZM97.0121 57.6424C96.1425 59.8316 95.5919 62.1342 95.377 64.4799H79.9892C79.7722 62.1339 79.2194 59.8313 78.3477 57.6424H97.0121ZM78.3477 75.8996C79.22 73.711 79.7729 71.4082 79.9892 69.062H95.377C95.5913 71.4079 96.1419 73.7106 97.0121 75.8996H78.3477ZM140.073 69.062C139.803 71.4468 139.105 73.7631 138.012 75.8996C136.047 79.7747 132.886 82.9134 128.997 84.85C125.108 86.7866 120.699 87.4179 116.422 86.6503C112.146 85.8828 108.232 83.7571 105.259 80.5889C102.286 77.4206 100.414 73.3784 99.9203 69.062C99.748 67.5395 99.748 66.0024 99.9203 64.4799C100.19 62.0961 100.887 59.7802 101.975 57.6424C103.662 54.3117 106.239 51.5135 109.419 49.5588C112.6 47.6041 116.26 46.5693 119.994 46.5693C123.727 46.5693 127.387 47.6041 130.568 49.5588C133.749 51.5135 136.325 54.3117 138.012 57.6424C139.105 59.7789 139.803 62.0952 140.073 64.4799C140.246 66.0024 140.246 67.5395 140.073 69.062ZM161.639 57.6424C160.765 59.8303 160.212 62.1334 159.998 64.4799H144.617C144.402 62.1342 143.851 59.8316 142.981 57.6424H161.639ZM142.975 75.8996C143.845 73.7106 144.396 71.4079 144.61 69.062H159.998C160.211 71.4087 160.764 73.7119 161.639 75.8996H142.975ZM204.694 69.062C204.134 73.9932 201.778 78.5456 198.075 81.8508C194.373 85.1561 189.584 86.9829 184.621 86.9829C179.658 86.9829 174.869 85.1561 171.166 81.8508C167.464 78.5456 165.108 73.9932 164.548 69.062C164.367 67.5401 164.367 66.0019 164.548 64.4799C164.818 62.0961 165.514 59.7802 166.603 57.6424C167.451 55.9757 168.526 54.4338 169.795 53.0603C171.684 51.0128 173.977 49.3787 176.528 48.2611C179.08 47.1434 181.835 46.5664 184.621 46.5664C187.406 46.5664 190.162 47.1434 192.714 48.2611C195.265 49.3787 197.558 51.0128 199.446 53.0603C200.716 54.4338 201.79 55.9757 202.639 57.6424C203.728 59.7802 204.424 62.0961 204.694 64.4799C204.875 66.0019 204.875 67.5401 204.694 69.062Z" fill="white"/>
<path d="M93.6579 47.3481L10.3921 26.7384L26.5942 44.2589L23.2723 47.3351L1.94531 24.2632L4.1491 20.5342L94.7437 42.9534L93.6579 47.3481Z" fill="white"/>
<path d="M146.336 47.3481L145.25 42.9534L235.844 20.5342L238.048 24.2632L216.721 47.3351L213.399 44.2589L229.601 26.7384L146.336 47.3481Z" fill="white"/>
<path d="M138.257 16.9402C137.91 12.3337 135.836 8.02847 132.449 4.88703C129.062 1.74558 124.613 0 119.994 0C115.374 0 110.925 1.74558 107.538 4.88703C104.151 8.02847 102.077 12.3337 101.73 16.9402C88.3217 18.5734 75.2237 22.1549 62.85 27.5714L64.6854 31.7075C76.5474 26.5051 89.1019 23.0525 101.956 21.4576C102.7 25.7025 104.916 29.5493 108.216 32.3213C111.516 35.0933 115.687 36.613 119.997 36.613C124.306 36.613 128.478 35.0933 131.778 32.3213C135.077 29.5493 137.294 25.7025 138.037 21.4576C150.892 23.0525 163.446 26.5051 175.308 31.7075L177.15 27.5714C164.772 22.1534 151.67 18.5719 138.257 16.9402ZM119.994 32.0953C116.801 32.0906 113.708 30.9799 111.242 28.9521C108.776 26.9242 107.089 24.1046 106.467 20.9729C106.29 20.0921 106.201 19.1958 106.202 18.2973C106.208 17.6768 106.253 17.0573 106.338 16.4425C106.782 13.1359 108.411 10.1028 110.923 7.90639C113.434 5.70997 116.657 4.4994 119.994 4.4994C123.33 4.4994 126.553 5.70997 129.064 7.90639C131.576 10.1028 133.205 13.1359 133.649 16.4425C133.739 17.0568 133.787 17.6765 133.791 18.2973C133.789 19.1956 133.7 20.0916 133.526 20.9729C132.905 24.1057 131.216 26.9262 128.749 28.9541C126.281 30.9821 123.187 32.0921 119.994 32.0953Z" fill="white"/>
</svg>
