<?xml version="1.0" encoding="utf-8"?>
<!-- Generator: Adobe Illustrator 26.3.1, SVG Export Plug-In . SVG Version: 6.00 Build 0)  -->
<svg version="1.1" id="レイヤー_1" xmlns="http://www.w3.org/2000/svg" xmlns:xlink="http://www.w3.org/1999/xlink" x="0px"
	 y="0px" width="240" height="92" viewBox="0 0 240 92" style="enable-background:new 0 0 240 92;" xml:space="preserve">
<style type="text/css">
	.st0{fill:#FFFFFF;}
</style>
<g>
	<g>
		<polygon class="st0" points="46.68,90.71 77.15,90.71 104.41,64.22 94.54,64.22 		"/>
		<polygon class="st0" points="83.76,90.71 114.23,90.71 116.42,64.22 106.55,64.22 		"/>
		<polygon class="st0" points="120.84,90.71 151.31,90.71 128.43,64.22 118.56,64.22 		"/>
		<polygon class="st0" points="130.57,64.22 157.92,90.71 188.39,90.71 140.43,64.22 		"/>
	</g>
</g>
<g>
	<g>
		<path class="st0" d="M192.54,27.26h-18l10.62-13.47l-2.72-4l-23.46,7c-3.4-2.67-14.04-9.54-33.37-10.03
			c-1.05-3.2-4.03-5.53-7.58-5.53s-6.53,2.33-7.58,5.53c-19.42,0.48-30.07,7.43-33.42,10.07L53.44,9.79l-2.72,4l10.62,13.47H42.54
			v5.07h19.55c-1.46,2.58-2.3,5.56-2.3,8.73c0,3.17,0.84,6.15,2.3,8.73H42.54v5.07h23.8c3.08,2.52,7,4.03,11.28,4.03
			s8.21-1.52,11.28-4.03h17.85c3.08,2.52,7,4.03,11.28,4.03s8.21-1.52,11.28-4.03h17.85c3.08,2.52,7,4.03,11.28,4.03
			c4.28,0,8.21-1.52,11.28-4.03h22.81V49.8h-18.55c1.46-2.58,2.3-5.56,2.3-8.73c0-3.17-0.84-6.15-2.3-8.73h18.55V27.26z
			 M168.68,26.48c-2.9-2.04-6.43-3.26-10.24-3.26c-9.84,0-17.84,8-17.84,17.84c0,3.17,0.84,6.15,2.3,8.73h-9.33
			c1.46-2.58,2.3-5.56,2.3-8.73c0-4.13-1.43-7.93-3.79-10.96l44.13-13.16L168.68,26.48z M118.03,6.3c1.62,0,2.94,1.32,2.94,2.94
			s-1.32,2.94-2.94,2.94c-1.62,0-2.94-1.32-2.94-2.94S116.41,6.3,118.03,6.3z M110.49,11.83c1.08,3.14,4.04,5.42,7.55,5.42
			c3.51,0,6.46-2.28,7.55-5.42c13.55,0.36,22.41,4.11,27.08,6.84l-24.93,7.44c-2.79-1.82-6.12-2.88-9.69-2.88
			c-3.6,0-6.95,1.08-9.75,2.92l-24.93-7.44C88,15.98,96.88,12.2,110.49,11.83z M59.68,16.94l44.27,13.21
			c-2.35,3.02-3.76,6.8-3.76,10.92c0,3.17,0.84,6.15,2.3,8.73h-9.33c1.46-2.58,2.3-5.56,2.3-8.73c0-9.84-8-17.84-17.84-17.84
			c-3.86,0-7.43,1.25-10.35,3.34L59.68,16.94z M77.62,53.83c-7.04,0-12.77-5.73-12.77-12.77S70.58,28.3,77.62,28.3
			c7.04,0,12.77,5.73,12.77,12.77S84.66,53.83,77.62,53.83z M118.03,53.83c-7.04,0-12.77-5.73-12.77-12.77s5.73-12.77,12.77-12.77
			c7.04,0,12.77,5.73,12.77,12.77S125.07,53.83,118.03,53.83z M158.44,53.83c-7.04,0-12.77-5.73-12.77-12.77s5.73-12.77,12.77-12.77
			c7.04,0,12.77,5.73,12.77,12.77S165.48,53.83,158.44,53.83z"/>
	</g>
	<g>
		<path class="st0" d="M69.74,36.23h13.11c0,0-1.23,4.29-2.57,5.35l2.57,1.51c0,0,3.68-4.8,3.35-9.59H69.74V36.23z"/>
		<path class="st0" d="M75.09,38.29c0,0-0.61,7.19-3.68,10.49l3.23,1.62c0,0,3.31-4.68,3.33-12.1H75.09z"/>
	</g>
	<path class="st0" d="M126.83,35.14l-3.31-1.96c-1.32,2.59-2.79,4.57-4.3,6.12l-4.49-4.15l-2.07,2.17l3.93,4.25
		c-4.97,3.51-9.58,2.93-9.58,2.93l2.25,4.19c4.09-0.22,7.46-1.95,10.12-4.11l2.17,2.35l2.89-2.79l-2.32-2.15
		C125.25,38.57,126.83,35.14,126.83,35.14z"/>
	<g>
		<path class="st0" d="M151.13,50.34l-0.13-7.02c-0.29,0.94-0.64,1.57-0.8,1.83l-0.16,0.26l-2.02-1.83l0.15-0.18
			c0.94-1.18,2.37-5.16,2.67-6.02h-2.28v-2.25h2.3l-0.04-2.44h2.94v2.44h1.88v2.25h-1.88v0.79l2.21,1.73l-1.22,1.79l-0.99-0.71v9.36
			H151.13z"/>
		<path class="st0" d="M156.56,46.63v-7h3.55v-0.61h-3.8v-2.07h1.7v-0.98h-1.45v-2.07h1.45V32.5h2.45v1.39h1.37V32.5h2.45v1.39h1.45
			v2.07h-1.45v0.98h2.57v2.07h-4.6v0.61h3.73v7H156.56z M163.66,44.84v-0.78h-1.52v0.78H163.66z M160.15,44.84v-0.78h-1.52v0.78
			H160.15z M163.66,42.29v-0.78h-1.52v0.78H163.66z M160.15,42.29v-0.78h-1.52v0.78H160.15z M161.83,36.95v-0.98h-1.37v0.98H161.83z
			"/>
		<path class="st0" d="M158.76,50.17l-3.42-1.02l0.85-0.33c0.02-0.01,1.54-0.59,2.26-1.73l0.07-0.12l0.16-0.03h1.7l-0.05,0.36
			c-0.01,0.08-0.29,1.84-1.3,2.79l-0.1,0.1L158.76,50.17z"/>
		<path class="st0" d="M164.78,50.31c-0.9-0.41-2.24-2.63-2.4-2.88l-0.12-0.21l0.26-0.25l0.13-0.01l1.84,0l0.07,0.08
			c0.34,0.36,1.53,0.98,2.11,1.25l0.42,0.2l-2.13,1.92L164.78,50.31z"/>
	</g>
</g>
</svg>
