<svg width="20" height="19" viewBox="0 0 20 19" fill="none" xmlns="http://www.w3.org/2000/svg">
<path d="M19.5567 7.86131L10.6733 0.260784C10.477 0.092417 10.228 0 9.97068 0C9.71333 0 9.46435 0.092417 9.26809 0.260784L0.384698 7.86131C0.164624 8.04978 0.0275824 8.31896 0.00372889 8.60962C-0.0201246 8.90029 0.0711628 9.18864 0.257503 9.41123C0.443843 9.63382 0.709956 9.77242 0.997333 9.79655C1.28471 9.82068 1.56981 9.72835 1.78988 9.53988L1.9312 9.42144V18.1737C1.9312 18.3567 2.0031 18.5323 2.13107 18.6617C2.25905 18.7912 2.43262 18.8639 2.6136 18.8639H7.62466V11.3042H12.3288V18.8639H17.3358C17.4254 18.8639 17.5142 18.846 17.597 18.8114C17.6798 18.7767 17.755 18.7258 17.8183 18.6617C17.8817 18.5977 17.932 18.5216 17.9663 18.4378C18.0006 18.3541 18.0182 18.2643 18.0182 18.1737V9.42144L18.1595 9.53988C18.2671 9.64303 18.3943 9.72293 18.5334 9.77468C18.6725 9.82643 18.8206 9.84895 18.9685 9.84087C19.1165 9.83278 19.2613 9.79426 19.3941 9.72766C19.5269 9.66106 19.6449 9.56778 19.7408 9.45351C19.8367 9.33924 19.9086 9.2064 19.9521 9.06308C19.9955 8.91976 20.0097 8.76899 19.9936 8.61997C19.9775 8.47095 19.9315 8.32681 19.8584 8.19637C19.7854 8.06593 19.6869 7.95192 19.5688 7.86131H19.5567Z" fill="white"/>
</svg>
