<svg width="20" height="21" viewBox="0 0 20 21" fill="none" xmlns="http://www.w3.org/2000/svg">
<path d="M19.5827 17.5465L14.8803 12.561C15.7097 11.25 16.1498 9.7259 16.1479 8.16947C16.1479 6.00277 15.2966 3.92486 13.7818 2.39277C12.2671 0.860677 10.2127 0 8.07051 0C5.92948 0.00178822 3.87672 0.863177 2.36341 2.39507C0.850101 3.92697 -7.29969e-07 6.00393 0 8.16947C-7.29968e-07 10.335 0.850101 12.412 2.36341 13.9439C3.87672 15.4758 5.92948 16.3371 8.07051 16.3389C9.74385 16.3357 11.375 15.8079 12.7394 14.828L17.3349 19.6985C17.4745 19.8471 17.6418 19.9665 17.827 20.0496C18.0123 20.1328 18.2116 20.1784 18.4142 20.1834C18.6168 20.1884 18.8186 20.1529 19.0076 20.079C19.1966 20.005 19.3694 19.8941 19.516 19.7525C19.813 19.4683 19.9868 19.0769 19.9993 18.6635C20.0118 18.2502 19.862 17.8485 19.5827 17.5465ZM2.47479 8.16947C2.47479 6.66834 3.06414 5.2287 4.11358 4.16725C5.16303 3.10579 6.58637 2.50938 8.07051 2.50938C8.80563 2.50849 9.53379 2.65446 10.2131 2.93858C10.8924 3.22271 11.5096 3.63952 12.0294 4.16527C12.5492 4.69103 12.9616 5.31524 13.2425 6.00234C13.5234 6.68944 13.6674 7.42594 13.6666 8.16947C13.6666 9.67059 13.0769 11.1102 12.0274 12.1717C10.978 13.2331 9.55465 13.8296 8.07051 13.8296C6.58637 13.8296 5.16303 13.2331 4.11358 12.1717C3.06414 11.1102 2.47479 9.67059 2.47479 8.16947Z" fill="white"/>
</svg>
