<svg width="20" height="18" viewBox="0 0 20 18" fill="none" xmlns="http://www.w3.org/2000/svg">
<path fill-rule="evenodd" clip-rule="evenodd" d="M19.0909 6.44797H14.7364L10.7455 0.406877C10.3818 -0.135626 9.59091 -0.135626 9.23636 0.406877L5.24545 6.44797H0.909091C0.409091 6.44797 0 6.86174 0 7.36747C0 7.45022 0.00909091 7.53298 0.0363636 7.61573L2.34545 16.1395C2.55455 16.9118 3.25455 17.4819 4.09091 17.4819H15.9091C16.7455 17.4819 17.4455 16.9118 17.6636 16.1395L19.9727 7.61573L20 7.36747C20 6.86174 19.5909 6.44797 19.0909 6.44797ZM9.99091 2.57709L12.5455 6.44812H7.43637L9.99091 2.57709ZM10 13.804C9 13.804 8.18182 12.9765 8.18182 11.965C8.18182 10.9536 9 10.126 10 10.126C11 10.126 11.8182 10.9536 11.8182 11.965C11.8182 12.9765 11 13.804 10 13.804Z" fill="white"/>
</svg>
