<svg width="20" height="22" viewBox="0 0 20 22" fill="none" xmlns="http://www.w3.org/2000/svg">
<path d="M9.99887 13.7202C9.99887 13.7202 15.3931 10.0911 15.3931 5.39438C15.3931 2.42008 12.9732 0 9.99887 0C7.02441 0 4.60449 2.42008 4.60449 5.39438C4.60449 10.0911 9.99887 13.7202 9.99887 13.7202ZM9.99887 3.21797C11.2007 3.21797 12.1751 4.19227 12.1751 5.39438C12.1751 6.59636 11.2006 7.57061 9.99887 7.57061C8.79676 7.57061 7.82246 6.59631 7.82246 5.39438C7.82246 4.19227 8.79676 3.21797 9.99887 3.21797Z" fill="white"/>
<path d="M20 4.91623L19.997 4.91771V4.91016L16.4331 6.74451C16.3543 7.18519 16.2372 7.61228 16.0918 8.02557C16.0539 8.12863 16.0156 8.23182 15.973 8.33404L15.9795 8.33057C15.9782 8.3337 15.9773 8.33686 15.9761 8.33999L17.8235 7.3881L18.6547 6.96345V17.3952L15.3281 19.1082L13.7807 19.9015V15.3074L13.7858 11.8558C13.7842 11.8578 13.7824 11.8596 13.7807 11.8616V11.8514C13.3236 12.3813 12.8607 12.8443 12.4355 13.2373V17.8166L12.4324 19.9034L7.56158 17.3951V13.2373C7.20188 12.9048 6.81509 12.5192 6.42771 12.0884C6.35863 12.0095 6.28874 11.9305 6.22311 11.8514V11.8589C6.22084 11.8563 6.21864 11.854 6.21636 11.8514V17.3951L2.88908 19.1095L1.34522 19.9014V9.46972L3.94234 8.13045C3.81704 7.78852 3.71436 7.43376 3.63274 7.07259C3.62464 7.03351 3.61211 6.99312 3.60485 6.95421L3.60341 6.95501C3.6029 6.95273 3.60223 6.95054 3.60176 6.94826L0.67263 8.45934L0 8.80586V21.2618L0.672546 21.6082L1.34518 21.2618L6.88891 18.4055L12.4355 21.2618L13.1081 21.6082L13.7807 21.2618L19.997 18.059V9.01287L20 4.91623Z" fill="white"/>
</svg>
