<svg width="200" height="77" viewBox="0 0 200 77" fill="none" xmlns="http://www.w3.org/2000/svg">
<path d="M199.995 44.2172H171.009C169.127 41.3923 166.577 39.0759 163.585 37.4737C160.592 35.8715 157.25 35.0332 153.856 35.0332C150.462 35.0332 147.12 35.8715 144.128 37.4737C141.135 39.0759 138.585 41.3923 136.703 44.2172H117.148C115.266 41.3923 112.716 39.0759 109.723 37.4737C106.731 35.8715 103.389 35.0332 99.9946 35.0332C96.6003 35.0332 93.2585 35.8715 90.2661 37.4737C87.2737 39.0759 84.7233 41.3923 82.8414 44.2172H63.2917C61.4098 41.3923 58.8595 39.0759 55.867 37.4737C52.8746 35.8715 49.5328 35.0332 46.1385 35.0332C42.7442 35.0332 39.4024 35.8715 36.41 37.4737C33.4176 39.0759 30.8672 41.3923 28.9854 44.2172H0V48.0356H26.9873C26.2627 49.8599 25.8038 51.7788 25.6247 53.7335H0V57.5519H25.6194C25.7996 59.5071 26.2603 61.4261 26.9873 63.2499H0.00538676V67.0683H28.9907C30.8726 69.8932 33.423 72.2096 36.4154 73.8118C39.4078 75.414 42.7496 76.2523 46.1439 76.2523C49.5382 76.2523 52.88 75.414 55.8724 73.8118C58.8648 72.2096 61.4152 69.8932 63.2971 67.0683H82.8468C84.7287 69.8932 87.2791 72.2096 90.2715 73.8118C93.2639 75.414 96.6057 76.2523 100 76.2523C103.394 76.2523 106.736 75.414 109.729 73.8118C112.721 72.2096 115.271 69.8932 117.153 67.0683H136.708C138.59 69.8932 141.141 72.2096 144.133 73.8118C147.125 75.414 150.467 76.2523 153.861 76.2523C157.256 76.2523 160.598 75.414 163.59 73.8118C166.582 72.2096 169.133 69.8932 171.015 67.0683H200V63.2499H173.007C173.737 61.4269 174.198 59.5075 174.375 57.5519H199.995V53.7335H174.375C174.197 51.7781 173.736 49.8588 173.007 48.0356H199.995V44.2172ZM62.8662 57.5519C62.3991 61.6613 60.4358 65.4549 57.3506 68.2093C54.2654 70.9636 50.2743 72.486 46.1385 72.486C42.0027 72.486 38.0116 70.9636 34.9264 68.2093C31.8413 65.4549 29.8779 61.6613 29.4108 57.5519C29.2599 56.2836 29.2599 55.0019 29.4108 53.7335C29.6338 51.7466 30.214 49.8163 31.1234 48.0356C32.5316 45.2632 34.6798 42.9348 37.33 41.3083C39.9802 39.6819 43.029 38.821 46.1385 38.821C49.248 38.821 52.2968 39.6819 54.947 41.3083C57.5973 42.9348 59.7455 45.2632 61.1536 48.0356C62.061 49.817 62.6411 51.747 62.8662 53.7335C63.0172 55.0019 63.0172 56.2836 62.8662 57.5519ZM80.8434 48.0356C80.1188 49.8599 79.6599 51.7788 79.4808 53.7335H66.6577C66.4768 51.7785 66.0161 49.8596 65.2897 48.0356H80.8434ZM65.2897 63.2499C66.0167 61.4261 66.4774 59.5071 66.6577 57.5519H79.4808C79.6594 59.5068 80.1183 61.4258 80.8434 63.2499H65.2897ZM116.728 57.5519C116.503 59.5392 115.921 61.4695 115.01 63.2499C113.373 66.4792 110.739 69.0948 107.498 70.7086C104.257 72.3224 100.582 72.8485 97.0187 72.2089C93.4553 71.5692 90.1929 69.7979 87.7157 67.1576C85.2385 64.5174 83.6784 61.1489 83.2669 57.5519C83.1233 56.2832 83.1233 55.0023 83.2669 53.7335C83.492 51.747 84.0721 49.817 84.9795 48.0356C86.3849 45.26 88.5321 42.9282 91.1827 41.2993C93.8333 39.6703 96.8835 38.808 99.9946 38.808C103.106 38.808 106.156 39.6703 108.807 41.2993C111.457 42.9282 113.604 45.26 115.01 48.0356C115.921 49.816 116.503 51.7463 116.728 53.7335C116.871 55.0023 116.871 56.2832 116.728 57.5519ZM134.699 48.0356C133.971 49.8588 133.51 51.7781 133.332 53.7335H120.514C120.335 51.7788 119.876 49.8599 119.151 48.0356H134.699ZM119.146 63.2499C119.871 61.4258 120.33 59.5068 120.508 57.5519H133.332C133.509 59.5075 133.97 61.4269 134.699 63.2499H119.146ZM170.578 57.5519C170.111 61.6613 168.148 65.4549 165.063 68.2093C161.978 70.9636 157.987 72.486 153.851 72.486C149.715 72.486 145.724 70.9636 142.639 68.2093C139.553 65.4549 137.59 61.6613 137.123 57.5519C136.972 56.2836 136.972 55.0019 137.123 53.7335C137.348 51.747 137.928 49.817 138.836 48.0356C139.543 46.6466 140.438 45.3618 141.496 44.2172C143.07 42.5109 144.98 41.1492 147.107 40.2178C149.233 39.2864 151.529 38.8056 153.851 38.8056C156.172 38.8056 158.468 39.2864 160.595 40.2178C162.721 41.1492 164.631 42.5109 166.205 44.2172C167.263 45.3618 168.159 46.6466 168.866 48.0356C169.773 49.817 170.353 51.747 170.578 53.7335C170.729 55.0019 170.729 56.2836 170.578 57.5519Z" fill="#333333"/>
<path d="M78.0483 39.4562L8.66009 22.2815L22.1618 36.8819L19.3936 39.4455L1.62109 20.2188L3.45759 17.1113L78.9531 35.794L78.0483 39.4562Z" fill="#333333"/>
<path d="M121.946 39.4562L121.042 35.794L196.537 17.1113L198.374 20.2188L180.601 39.4455L177.833 36.8819L191.335 22.2815L121.946 39.4562Z" fill="#333333"/>
<path d="M148.616 50.1362H150.975V47.4004H148.616V44.3359H145.304V47.4004H142.11V50.1362H145.304V51.1972L141.695 58.5863L144.35 61.2414L145.304 58.694V66.9555H148.616V54.2778L149.86 55.6457L151.389 53.7015L148.616 50.9225V50.1362Z" fill="#E85144"/>
<path d="M159.786 62.2323H164.568V52.7429H159.786V51.6281H165.117V49.2207H162.425V48.3913H164.477V45.9893H162.425V44.3359H159.608V45.9893H157.578V44.3359H154.761V45.9893H152.714V48.3913H154.761V49.2207H152.068V51.6281H157.4V52.7429H152.704V62.2323H159.769H159.786ZM157.583 48.3913H159.613V49.2207H157.583V48.3913ZM159.786 60.2397V58.4839H162.198V60.2397H159.786ZM162.198 54.7517V56.5128H159.786V54.7517H162.198ZM157.416 54.7517V56.5128H155.084V54.7517H157.416ZM155.084 60.2612V58.5055H157.416V60.2612H155.084Z" fill="#E85144"/>
<path d="M155.456 66.7509L157.642 63.6434L155.66 62.2324L151.89 65.55L155.456 66.7509Z" fill="#E85144"/>
<path d="M162.699 62.2539L160.421 63.498L163.448 66.7293L166.017 64.699L162.699 62.2539Z" fill="#E85144"/>
<path d="M111.224 48.4558L107.992 45.8438C106.51 48.7641 104.601 51.4469 102.327 53.8037L96.8871 48.4989L94.3074 50.8578L99.2622 56.3941C97.8029 57.4662 96.1883 58.3089 94.4744 58.8931C92.2777 59.4989 89.9936 59.7248 87.7208 59.5609L90.7045 64.3648C94.8805 63.7946 98.8537 62.212 102.278 59.7548L105.369 63.2016L108.725 60.0133L105.456 56.825C107.584 54.183 109.512 51.3855 111.224 48.4558Z" fill="#E85144"/>
<path d="M35.7389 45.5361H57.6152C57.6152 50.7117 55.9565 55.9734 53.0859 58.5962L49.7846 56.2858C49.7846 56.2858 52.9459 52.2466 53.2475 49.2845H35.7389V45.5361Z" fill="#E85144"/>
<path d="M43.1441 51.665H46.6825C46.6825 51.665 47.5926 60.8636 41.8731 67.908C40.8391 67.4502 37.6939 65.9584 37.6939 65.9584C37.6939 65.9584 43.171 61.1114 43.1441 51.665Z" fill="#E85144"/>
<path d="M115.214 14.1168C114.925 10.2781 113.196 6.69039 110.374 4.07252C107.552 1.45465 103.844 0 99.9946 0C96.145 0 92.4376 1.45465 89.6152 4.07252C86.7928 6.69039 85.0639 10.2781 84.7749 14.1168C73.6014 15.4778 62.6864 18.4624 52.375 22.9761L53.9046 26.4229C63.7895 22.0876 74.2516 19.2104 84.9634 17.8813C85.583 21.4188 87.4302 24.6244 90.1799 26.9344C92.9297 29.2444 96.406 30.5108 99.9973 30.5108C103.589 30.5108 107.065 29.2444 109.815 26.9344C112.564 24.6244 114.412 21.4188 115.031 17.8813C125.743 19.2104 136.205 22.0876 146.09 26.4229L147.625 22.9761C137.31 18.4612 126.392 15.4766 115.214 14.1168ZM99.9946 26.7461C97.334 26.7422 94.7568 25.8166 92.7017 24.1267C90.6466 22.4369 89.2405 20.0872 88.7225 17.4774C88.575 16.7434 88.501 15.9965 88.5017 15.2478C88.5066 14.7307 88.5444 14.2144 88.6148 13.7021C88.9852 10.9466 90.3428 8.41902 92.4356 6.58866C94.5284 4.7583 97.2143 3.7495 99.9946 3.7495C102.775 3.7495 105.461 4.7583 107.554 6.58866C109.646 8.41902 111.004 10.9466 111.374 13.7021C111.449 14.214 111.489 14.7305 111.493 15.2478C111.491 15.9964 111.417 16.743 111.272 17.4774C110.754 20.0881 109.347 22.4385 107.291 24.1284C105.235 25.8184 102.656 26.7434 99.9946 26.7461Z" fill="#333333"/>
</svg>
