<?xml version="1.0" encoding="utf-8"?>
<!-- Generator: Adobe Illustrator 26.3.1, SVG Export Plug-In . SVG Version: 6.00 Build 0)  -->
<svg version="1.1" id="レイヤー_1" xmlns="http://www.w3.org/2000/svg" xmlns:xlink="http://www.w3.org/1999/xlink" x="0px"
	 y="0px" width="200" height="90" viewBox="0 0 200 90" style="enable-background:new 0 0 200 90;" xml:space="preserve">
<style type="text/css">
	.st0{fill:#313333;}
	.st1{fill:#CE4E45;}
</style>
<g>
	<g>
		<polygon class="st0" points="27.15,90 57.8,90 85.23,63.35 75.31,63.35 		"/>
		<polygon class="st0" points="64.45,90 95.1,90 97.3,63.35 87.38,63.35 		"/>
		<polygon class="st0" points="101.75,90 132.4,90 109.38,63.35 99.46,63.35 		"/>
		<polygon class="st0" points="111.53,63.35 139.05,90 169.7,90 121.47,63.35 		"/>
	</g>
</g>
<g>
	<g>
		<path class="st0" d="M173.86,26.18h-18.11l10.69-13.54l-2.72-4.04l-23.59,7.04c-3.41-2.69-14.12-9.6-33.56-10.09
			C105.49,2.34,102.49,0,98.92,0c-3.57,0-6.57,2.34-7.63,5.56c-19.53,0.49-30.24,7.47-33.61,10.12L33.96,8.61l-2.73,4.02
			l10.69,13.54H23v5.1h19.66c-1.47,2.6-2.32,5.59-2.32,8.79c0,3.19,0.85,6.18,2.32,8.79H23v5.1h23.94C50.03,56.47,53.98,58,58.28,58
			s8.25-1.53,11.34-4.06h17.95C90.66,56.47,94.61,58,98.91,58s8.25-1.53,11.34-4.06h17.95c3.09,2.53,7.04,4.06,11.34,4.06
			s8.25-1.53,11.34-4.06h22.95v-5.1h-18.66c1.47-2.6,2.32-5.59,2.32-8.79c0-3.19-0.85-6.18-2.32-8.79h18.66v-5.09H173.86z
			 M149.87,25.4c-2.91-2.05-6.47-3.27-10.3-3.27c-9.9,0-17.95,8.05-17.95,17.95c0,3.19,0.85,6.18,2.32,8.79h-9.38
			c1.47-2.6,2.32-5.59,2.32-8.79c0-4.15-1.43-7.98-3.82-11.02l44.39-13.24L149.87,25.4z M98.92,5.1c1.64,0,2.96,1.33,2.96,2.96
			s-1.33,2.96-2.96,2.96c-1.64,0-2.96-1.33-2.96-2.96S97.3,5.1,98.92,5.1z M91.34,10.66c1.09,3.16,4.06,5.46,7.59,5.46
			c3.53,0,6.5-2.29,7.59-5.46c13.62,0.36,22.54,4.14,27.23,6.88l-25.07,7.47c-2.81-1.83-6.16-2.9-9.75-2.9
			c-3.62,0-6.98,1.09-9.81,2.94l-25.07-7.47C68.72,14.84,77.65,11.03,91.34,10.66z M40.23,15.81L84.76,29.1
			c-2.36,3.03-3.78,6.84-3.78,10.98c0,3.19,0.85,6.18,2.32,8.79h-9.38c1.47-2.6,2.32-5.59,2.32-8.79c0-9.9-8.05-17.95-17.95-17.95
			c-3.88,0-7.47,1.25-10.41,3.36L40.23,15.81z M58.28,52.9c-7.08,0-12.83-5.75-12.83-12.83s5.75-12.83,12.83-12.83
			s12.85,5.75,12.85,12.83S65.36,52.9,58.28,52.9z M98.92,52.9c-7.08,0-12.83-5.75-12.83-12.83s5.75-12.83,12.83-12.83
			c7.08,0,12.83,5.75,12.83,12.83S106,52.9,98.92,52.9z M139.57,52.9c-7.08,0-12.83-5.75-12.83-12.83s5.75-12.83,12.83-12.83
			s12.83,5.75,12.83,12.83S146.65,52.9,139.57,52.9z"/>
	</g>
	<g>
		<path class="st1" d="M50.35,35.21h13.18c0,0-1.23,4.32-2.58,5.38l2.58,1.52c0,0,3.7-4.82,3.37-9.65H50.35V35.21z"/>
		<path class="st1" d="M55.74,37.28c0,0-0.62,7.24-3.7,10.54l3.26,1.62c0,0,3.33-4.72,3.34-12.18h-2.9V37.28z"/>
	</g>
	<path class="st1" d="M107.77,34.1l-3.33-1.97c-1.33,2.6-2.81,4.6-4.32,6.15L95.6,34.1l-2.08,2.18l3.95,4.27
		c-5,3.53-9.64,2.95-9.64,2.95l2.26,4.21c4.12-0.21,7.5-1.97,10.18-4.13l2.18,2.36l2.91-2.81l-2.33-2.16
		C106.18,37.55,107.77,34.1,107.77,34.1z"/>
	<g>
		<path class="st1" d="M132.22,49.39l-0.13-7.06c-0.3,0.94-0.64,1.58-0.8,1.84l-0.16,0.26l-2.03-1.85l0.14-0.18
			c0.94-1.18,2.38-5.19,2.69-6.05h-2.29v-2.27h2.3l-0.05-2.46h2.96v2.46h1.89v2.27h-1.89v0.79l2.22,1.74l-1.23,1.8l-0.99-0.72v9.41
			h-2.64V49.39z"/>
		<path class="st1" d="M137.68,45.67v-7.04h3.57V38h-3.82v-2.09h1.71v-0.99h-1.46v-2.08h1.46v-1.4h2.46v1.4h1.37v-1.4h2.46v1.4h1.46
			v2.09h-1.46v0.99h2.59v2.09h-4.63v0.62h3.75v7.04h-9.46V45.67z M144.82,43.87v-0.79h-1.53v0.79H144.82z M141.28,43.87v-0.79h-1.53
			v0.79H141.28z M144.82,41.3v-0.79h-1.53v0.79H144.82z M141.28,41.3v-0.79h-1.53v0.79H141.28z M142.98,35.93v-0.99h-1.37v0.99
			H142.98z"/>
		<path class="st1" d="M139.89,49.23l-3.44-1.03l0.86-0.32c0.01-0.01,1.54-0.6,2.27-1.74l0.07-0.12l0.16-0.02h1.71l-0.06,0.36
			c-0.01,0.07-0.29,1.85-1.31,2.81l-0.11,0.1L139.89,49.23z"/>
		<path class="st1" d="M145.94,49.37c-0.91-0.42-2.26-2.65-2.41-2.9l-0.13-0.21l0.26-0.25l0.13-0.01h1.85l0.07,0.08
			c0.35,0.37,1.54,0.98,2.13,1.27l0.43,0.2l-2.15,1.92L145.94,49.37z"/>
	</g>
</g>
</svg>
