<svg width="32" height="32" viewBox="0 0 32 32" fill="none" xmlns="http://www.w3.org/2000/svg">
<path d="M15.1293 17.9751C15.0105 17.9027 14.8784 17.8549 14.7408 17.8345C14.587 17.824 14.4326 17.824 14.2787 17.8345H13.2004V19.7231H14.2787C14.4334 19.7258 14.5881 19.7146 14.7408 19.6897C14.878 19.6715 15.0101 19.626 15.1293 19.5557C15.2414 19.4838 15.3336 19.3848 15.3972 19.2677C15.4635 19.1133 15.4977 18.9469 15.4977 18.7788C15.4977 18.6107 15.4635 18.4444 15.3972 18.2899C15.3404 18.1612 15.2473 18.0518 15.1293 17.9751Z" fill="white"/>
<path d="M21.5119 18.451C21.3644 18.2653 21.1703 18.122 20.9493 18.0358C20.6766 17.9286 20.3849 17.8785 20.0921 17.8885H19.1008V21.8667H20.3399C20.5378 21.866 20.7344 21.8344 20.9225 21.7729C21.1136 21.7049 21.2858 21.5924 21.4248 21.4448C21.5847 21.2791 21.7059 21.0801 21.7798 20.8621C21.8744 20.5772 21.9197 20.2782 21.9137 19.978C21.9161 19.6874 21.8846 19.3975 21.82 19.1141C21.7642 18.8741 21.6593 18.6484 21.5119 18.451Z" fill="white"/>
<path d="M30.5933 13.7495H9.9721C9.59909 13.7495 9.24136 13.8977 8.9776 14.1615C8.71384 14.4252 8.56567 14.7829 8.56567 15.156V24.4519C8.56567 24.8249 8.71384 25.1826 8.9776 25.4464C9.24136 25.7102 9.59909 25.8583 9.9721 25.8583H30.5933C30.9663 25.8583 31.324 25.7102 31.5878 25.4464C31.8516 25.1826 31.9997 24.8249 31.9997 24.4519V15.156C31.9997 14.7829 31.8516 14.4252 31.5878 14.1615C31.324 13.8977 30.9663 13.7495 30.5933 13.7495ZM16.7231 19.4958C16.649 19.744 16.5209 19.9728 16.348 20.1656C16.158 20.3613 15.9301 20.5162 15.6783 20.621C15.3551 20.7414 15.0117 20.7982 14.667 20.7884H13.2069V23.0521H11.8206V16.7432H14.667C15.0117 16.7334 15.3551 16.7903 15.6783 16.9107C15.9301 17.0154 16.158 17.1704 16.348 17.3661C16.5193 17.56 16.6472 17.7884 16.7231 18.0358C16.8027 18.2779 16.8434 18.5311 16.8436 18.7859C16.8402 19.0274 16.7996 19.2668 16.7231 19.4958ZM23.1257 21.1166C23.0154 21.4837 22.8333 21.8251 22.5899 22.1212C22.347 22.4112 22.0397 22.6406 21.6925 22.7909C21.2947 22.9599 20.8654 23.0421 20.4334 23.0321H17.7142V16.7231H20.4334C20.8216 16.7177 21.2075 16.7835 21.5719 16.9174C21.9148 17.042 22.2259 17.241 22.4828 17.5C22.7488 17.7785 22.9541 18.1092 23.0855 18.4712C23.2324 18.9023 23.3048 19.3552 23.2999 19.8106C23.3058 20.2521 23.2471 20.6921 23.1257 21.1166ZM28.7046 17.8885H25.6506V19.3485H28.276V20.4268H25.6305V23.0321H24.2576V16.7231H28.6979L28.7046 17.8885Z" fill="white"/>
<path d="M21.8468 27.9749C21.8468 28.2609 21.7332 28.5351 21.531 28.7373C21.3287 28.9396 21.0545 29.0532 20.7685 29.0532H3.08747C2.8015 29.0532 2.52724 28.9396 2.32503 28.7373C2.12281 28.5351 2.00921 28.2609 2.00921 27.9749V3.0741C2.00921 2.78813 2.12281 2.51386 2.32503 2.31165C2.52724 2.10943 2.8015 1.99583 3.08747 1.99583H14.8815L15.0021 2.12308V8.97447C15.0021 9.10059 15.0522 9.22155 15.1413 9.31072C15.2305 9.3999 15.3515 9.44999 15.4776 9.44999H21.7664L21.82 9.50357V13.08H23.8292V9.10843C23.8265 8.85959 23.731 8.62073 23.5613 8.43869L16.0603 0.321488C15.9667 0.219427 15.8528 0.138092 15.726 0.0827233C15.5991 0.0273546 15.462 -0.000816454 15.3235 1.80105e-05H3.08747C2.26862 1.80105e-05 1.48331 0.325304 0.904291 0.904319C0.325275 1.48333 0 2.26865 0 3.0875V27.9883C0.00176932 28.8066 0.327621 29.5909 0.906253 30.1695C1.48488 30.7481 2.26917 31.074 3.08747 31.0758H20.7685C21.5868 31.074 22.3711 30.7481 22.9497 30.1695C23.5283 29.5909 23.8542 28.8066 23.856 27.9883V26.5417H21.8468V27.9749ZM15.9799 3.14777L20.9158 8.50566H15.9799V3.14777Z" fill="white"/>
</svg>
