<svg width="25" height="24" viewBox="0 0 25 24" fill="none" xmlns="http://www.w3.org/2000/svg">
<path d="M23.5518 20.864L17.8963 14.936C18.8938 13.3771 19.4231 11.5648 19.4207 9.71407C19.4207 7.13771 18.3969 4.66693 16.5751 2.84517C14.7534 1.02341 12.2826 0 9.70624 0C7.13127 0.00212632 4.66245 1.02638 2.84243 2.84791C1.0224 4.66944 -8.77919e-07 7.1391 0 9.71407C-8.77918e-07 12.289 1.0224 14.7587 2.84243 16.5802C4.66245 18.4018 7.13127 19.426 9.70624 19.4281C11.7187 19.4243 13.6805 18.7967 15.3214 17.6315L20.8484 23.4229C21.0162 23.5996 21.2174 23.7415 21.4402 23.8404C21.663 23.9393 21.9027 23.9935 22.1464 23.9994C22.3901 24.0054 22.6327 23.9632 22.86 23.8753C23.0874 23.7874 23.2952 23.6554 23.4715 23.4871C23.8287 23.1492 24.0377 22.6837 24.0527 22.1922C24.0677 21.7007 23.8876 21.2232 23.5518 20.864V20.864ZM2.97638 9.71407C2.97638 7.92913 3.68517 6.2173 4.94732 4.95515C6.20946 3.69301 7.92129 2.98382 9.70624 2.98382C10.5903 2.98277 11.4661 3.15634 12.2831 3.49418C13.1001 3.83203 13.8423 4.32764 14.4675 4.9528C15.0927 5.57796 15.5887 6.32019 15.9265 7.1372C16.2644 7.95422 16.4375 8.82996 16.4365 9.71407C16.4365 11.499 15.7273 13.2108 14.4652 14.473C13.203 15.7351 11.4912 16.4443 9.70624 16.4443C7.92129 16.4443 6.20946 15.7351 4.94732 14.473C3.68517 13.2108 2.97638 11.499 2.97638 9.71407Z" fill="white"/>
</svg>
