<svg width="28" height="24" viewBox="0 0 28 24" fill="none" xmlns="http://www.w3.org/2000/svg">
<path fill-rule="evenodd" clip-rule="evenodd" d="M26.5089 8.85207H20.4623L14.9207 0.55858C14.4158 -0.186193 13.3176 -0.186193 12.8252 0.55858L7.28363 8.85207H1.26233C0.568047 8.85207 0 9.42012 0 10.1144C0 10.228 0.0126233 10.3416 0.0504931 10.4552L3.2568 22.157C3.54714 23.2174 4.51913 24 5.68047 24H22.0907C23.2521 24 24.2241 23.2174 24.527 22.157L27.7333 10.4552L27.7712 10.1144C27.7712 9.42012 27.2032 8.85207 26.5089 8.85207ZM13.8729 3.53807L17.4201 8.85247H10.3258L13.8729 3.53807ZM13.8858 18.9507C12.4972 18.9507 11.3611 17.8146 11.3611 16.4261C11.3611 15.0375 12.4972 13.9014 13.8858 13.9014C15.2744 13.9014 16.4105 15.0375 16.4105 16.4261C16.4105 17.8146 15.2744 18.9507 13.8858 18.9507Z" fill="white"/>
</svg>
