<svg width="30" height="32" viewBox="0 0 30 32" fill="none" xmlns="http://www.w3.org/2000/svg">
<path d="M29.4093 16.6269L13.3703 0.587891L6.67237 0.786812L4.56803 2.88465C5.15272 3.56961 5.70096 4.28493 6.21045 5.02752C6.5951 4.82103 7.0249 4.71303 7.46148 4.71316C8.03726 4.70923 8.59923 4.8894 9.06538 5.22738C9.53154 5.56537 9.87748 6.04341 10.0527 6.59188C10.228 7.14034 10.2234 7.73046 10.0396 8.27613C9.85584 8.8218 9.50249 9.29452 9.03112 9.62519C8.55975 9.95587 7.99505 10.1273 7.4194 10.1144C6.84376 10.1014 6.2873 9.90493 5.83122 9.55346C5.37515 9.20199 5.04334 8.71397 4.88419 8.16061C4.72505 7.60726 4.7469 7.01752 4.94657 6.47746C4.20489 5.90361 3.49391 5.29107 2.81658 4.64252L1.18701 6.26569V13.1689L17.226 29.2079C17.2908 29.298 17.3761 29.3714 17.4748 29.422C17.5735 29.4727 17.6829 29.499 17.7938 29.499C17.9048 29.499 18.0141 29.4727 18.1128 29.422C18.2116 29.3714 18.2968 29.298 18.3616 29.2079L29.4478 18.1282C29.4478 18.1282 30.0059 17.2236 29.4093 16.6269Z" fill="white"/>
<path d="M6.52468 6.8431C6.52468 6.8431 6.57601 6.8431 6.58884 6.8431C6.96737 6.46458 4.62567 3.35945 1.45635 0.04899C1.29949 0.0218727 1.14076 0.00681481 0.981586 0.00403691C0.831495 -0.00923872 0.680314 0.0103269 0.538516 0.0612856C0.396717 0.112244 0.267694 0.193431 0.160388 0.299208C0.0750556 0.44523 0.0222855 0.607919 0.00567596 0.776228C-0.0109336 0.944538 0.00901346 1.11443 0.0641581 1.27432C2.09791 3.46204 5.61367 6.8431 6.52468 6.8431Z" fill="white"/>
<path d="M2.40576 16.4082L8.43003 31.5233C8.45016 31.6169 8.49227 31.7044 8.55291 31.7785C8.61354 31.8526 8.69096 31.9112 8.77873 31.9495C8.8665 31.9877 8.96212 32.0045 9.05767 31.9985C9.15322 31.9924 9.24595 31.9637 9.32821 31.9147L15.4102 29.4896L2.40576 16.4082Z" fill="white"/>
</svg>
