<svg width="80" height="80" viewBox="0 0 80 80" fill="none" xmlns="http://www.w3.org/2000/svg">
<path fill-rule="evenodd" clip-rule="evenodd" d="M40 80C62.0914 80 80 62.0914 80 40C80 17.9086 62.0914 0 40 0C17.9086 0 0 17.9086 0 40C0 62.0914 17.9086 80 40 80Z" fill="#2AA3EF"/>
<path fill-rule="evenodd" clip-rule="evenodd" d="M61.3334 26.7698C59.7645 27.4657 58.0752 27.9362 56.3056 28.1492C58.1129 27.0645 59.501 25.3509 60.1536 23.3079C58.4618 24.3108 56.5893 25.0389 54.5937 25.4301C52.9973 23.7289 50.7232 22.6665 48.2055 22.6665C43.3711 22.6665 39.4503 26.5841 39.4503 31.418C39.4503 32.1064 39.5306 32.7726 39.6787 33.4139C32.4045 33.0499 25.956 29.5632 21.6386 24.2687C20.8831 25.5614 20.4539 27.0645 20.4539 28.6692C20.4539 31.7052 22.0001 34.3847 24.347 35.9522C22.9113 35.9076 21.5608 35.5139 20.3836 34.8577C20.3836 34.8948 20.3836 34.932 20.3836 34.9691C20.3836 39.2086 23.3982 42.7449 27.4043 43.5497C26.6689 43.7503 25.8983 43.8568 25.0976 43.8568C24.5353 43.8568 23.9856 43.8023 23.4509 43.6983C24.5654 47.1751 27.7984 49.706 31.6288 49.7778C28.6318 52.1229 24.8566 53.522 20.7551 53.522C20.0498 53.522 19.3519 53.4824 18.6667 53.4007C22.5398 55.8845 27.1408 57.3332 32.0857 57.3332C48.1855 57.3332 56.9909 43.9979 56.9909 32.4333C56.9909 32.0519 56.9808 31.678 56.9658 31.3016C58.6752 30.0684 60.1611 28.5256 61.3334 26.7723V26.7698Z" fill="white"/>
</svg>
